<svg width="66" height="66" viewBox="0 0 66 66" fill="none" xmlns="http://www.w3.org/2000/svg">
<rect x="1" y="1" width="64" height="64" rx="16" fill="white"/>
<rect x="1" y="1" width="64" height="64" rx="16" stroke="#010039"/>
<path d="M32.6236 28.2236C31.7476 28.2236 30.3916 27.2276 28.9636 27.2636C27.0796 27.2876 25.3516 28.3556 24.3796 30.0476C22.4236 33.4436 23.8756 38.4596 25.7836 41.2196C26.7196 42.5636 27.8236 44.0756 29.2876 44.0276C30.6916 43.9676 31.2196 43.1156 32.9236 43.1156C34.6156 43.1156 35.0956 44.0276 36.5836 43.9916C38.0956 43.9676 39.0556 42.6236 39.9796 41.2676C41.0476 39.7076 41.4916 38.1956 41.5156 38.1116C41.4796 38.0996 38.5756 36.9836 38.5396 33.6236C38.5156 30.8156 40.8316 29.4716 40.9396 29.4116C39.6196 27.4796 37.5916 27.2636 36.8836 27.2156C35.0356 27.0716 33.4876 28.2236 32.6236 28.2236ZM35.7436 25.3916C36.5236 24.4556 37.0396 23.1476 36.8956 21.8516C35.7796 21.8996 34.4356 22.5956 33.6316 23.5316C32.9116 24.3596 32.2876 25.6916 32.4556 26.9636C33.6916 27.0596 34.9636 26.3276 35.7436 25.3916Z" fill="#010039"/>
</svg>
