<svg width="137" height="28" viewBox="0 0 137 28" fill="none" xmlns="http://www.w3.org/2000/svg">
<path d="M23.4878 11.0043C23.4906 10.7633 23.5864 10.5329 23.7545 10.3625C23.9225 10.192 24.1497 10.0949 24.3874 10.092H25.6203C25.858 10.0949 26.0852 10.192 26.2533 10.3625C26.4214 10.5329 26.5171 10.7633 26.52 11.0043V19.925C26.52 21.6595 26.9035 22.9548 27.6704 23.8108C28.4373 24.6668 29.5533 25.0959 31.0184 25.0981C32.419 25.0981 33.5186 24.669 34.3173 23.8108C35.1159 22.9527 35.5178 21.6574 35.523 19.925V11.0043C35.5268 10.7635 35.6228 10.5336 35.7909 10.3634C35.9586 10.1931 36.1854 10.0957 36.4229 10.092H37.6556C37.8938 10.0941 38.1213 10.1909 38.2897 10.3615C38.4578 10.5322 38.5534 10.763 38.5555 11.0043V26.7506C38.5534 26.9919 38.4578 27.2227 38.2897 27.3934C38.1213 27.564 37.8938 27.6608 37.6556 27.6629H36.4229C36.1854 27.6592 35.9586 27.5618 35.7909 27.3916C35.6228 27.2213 35.5268 26.9914 35.523 26.7506V25.7031C35.0238 26.3344 34.4138 26.8668 33.7238 27.2735C32.9421 27.7563 31.8737 27.9976 30.5186 27.9976C29.5392 28.0093 28.5665 27.8313 27.6529 27.473C26.8005 27.1433 26.0302 26.6272 25.3967 25.9615C24.7632 25.2957 24.2821 24.4966 23.9876 23.621C23.6403 22.5964 23.4711 21.5184 23.4878 20.4351V11.0043Z" fill="#979797"/>
<path d="M45.2467 6.51033C45.244 6.75141 45.1484 6.98175 44.9803 7.15223C44.8122 7.32275 44.585 7.41977 44.3472 7.42271H42.4431C42.207 7.41729 41.9823 7.31915 41.8162 7.14891C41.6502 6.97872 41.5556 6.74977 41.5529 6.51033V4.57949C41.5556 4.33845 41.6516 4.10806 41.8197 3.93761C41.9878 3.76715 42.2149 3.67009 42.4524 3.66714H44.3568C44.5943 3.67009 44.8215 3.76715 44.9896 3.93761C45.1577 4.10806 45.2533 4.33845 45.2564 4.57949L45.2467 6.51033ZM44.9136 26.7507C44.9109 26.9918 44.8149 27.2221 44.6468 27.3926C44.4787 27.5631 44.2516 27.6601 44.0141 27.663H42.7811C42.5432 27.6601 42.3161 27.5631 42.148 27.3926C41.9799 27.2221 41.8843 26.9918 41.8815 26.7507V11.0045C41.8843 10.7634 41.9799 10.533 42.148 10.3626C42.3161 10.1921 42.5432 10.095 42.7811 10.0921H44.0141C44.2516 10.095 44.4787 10.1921 44.6468 10.3626C44.8149 10.533 44.9109 10.7634 44.9136 11.0045V26.7507Z" fill="#979797"/>
<path d="M51.2778 26.7507C51.275 26.9918 51.1798 27.2221 51.0114 27.3925C50.8434 27.5631 50.6161 27.6601 50.3786 27.663H49.1456C48.9081 27.6601 48.6808 27.5631 48.5128 27.3925C48.3444 27.2221 48.2487 26.9918 48.2459 26.7507V4.58429C48.2487 4.34321 48.3444 4.11286 48.5128 3.9424C48.6808 3.77191 48.9081 3.67486 49.1456 3.67194H50.3786C50.6161 3.67486 50.8434 3.77191 51.0114 3.9424C51.1798 4.11286 51.275 4.34321 51.2778 4.58429V26.7507Z" fill="#979797"/>
<path d="M61.3415 9.75417C62.7168 9.75417 63.8162 9.99609 64.6404 10.4799C65.3577 10.8751 65.9914 11.4092 66.5061 12.0519V4.58429C66.5094 4.34321 66.605 4.11286 66.773 3.9424C66.941 3.77191 67.1683 3.67486 67.4063 3.67194H68.6388C68.8768 3.67486 69.104 3.77191 69.272 3.9424C69.44 4.11286 69.5357 4.34321 69.539 4.58429V26.7506C69.5357 26.9917 69.44 27.2221 69.272 27.3925C69.104 27.563 68.8768 27.6601 68.6388 27.663H67.4063C67.1683 27.6601 66.941 27.563 66.773 27.3925C66.605 27.2221 66.5094 26.9917 66.5061 26.7506V25.7032C65.9928 26.3719 65.3432 26.9207 64.6021 27.3122C63.7836 27.7692 62.6962 27.9977 61.3415 27.9977C60.3433 28.0062 59.353 27.8166 58.4267 27.4393C57.5405 27.0763 56.7397 26.528 56.0766 25.8303C55.3882 25.0973 54.8455 24.2369 54.4773 23.296C54.0592 22.2294 53.8202 21.0992 53.7712 19.9524C53.7488 19.6145 53.7376 19.2481 53.7376 18.8534C53.7376 18.4587 53.7488 18.0929 53.7712 17.756C53.8179 16.6091 54.055 15.4784 54.4708 14.4108C54.8399 13.4779 55.3854 12.6273 56.0766 11.9071C56.7439 11.2196 57.5442 10.679 58.4267 10.319C59.3526 9.93953 60.3428 9.74769 61.3415 9.75417ZM66.5061 20.3305C66.5285 19.9926 66.5397 19.5475 66.5397 18.995C66.5397 18.4425 66.5285 17.9979 66.5061 17.6611C66.4398 16.0617 65.9676 14.8281 65.0912 13.9603C64.2138 13.0925 63.0752 12.6591 61.6747 12.6602C60.2136 12.6602 59.06 13.1332 58.2139 14.0793C57.3678 15.0255 56.9012 16.3095 56.8144 17.9314C56.7924 18.5622 56.7924 19.1929 56.8144 19.8237C56.9035 21.4456 57.3697 22.7296 58.2139 23.6757C59.0581 24.6219 60.2117 25.0971 61.6747 25.1014C63.05 25.1014 64.1826 24.6723 65.0734 23.8141C65.9643 22.956 66.4417 21.7948 66.5061 20.3305Z" fill="#979797"/>
<path d="M72.0706 17.188C72.1537 16.1838 72.4043 15.2012 72.8117 14.282C73.1939 13.4072 73.724 12.6068 74.3778 11.9167C75.034 11.2323 75.8222 10.6918 76.693 10.3286C77.6496 9.93463 78.6749 9.73929 79.7076 9.75413C80.8071 9.73518 81.8991 9.9358 82.9225 10.3447C83.8419 10.7238 84.6655 11.3072 85.3324 12.0519C86.0221 12.8359 86.5443 13.7563 86.8654 14.7551C87.2331 15.8975 87.4132 17.0934 87.3988 18.295V19.2074C87.396 19.4484 87.2999 19.6788 87.1319 19.8492C86.9639 20.0197 86.7366 20.1168 86.499 20.1197H75.033V20.3224C75.0778 21.8543 75.538 23.031 76.4153 23.8527C77.2922 24.6744 78.3874 25.0906 79.7011 25.1013C80.9233 25.1013 81.8394 24.9265 82.4498 24.5768C83.0037 24.2732 83.5044 23.8797 83.9333 23.4119C84.0686 23.2644 84.2264 23.139 84.3995 23.0402C84.5899 22.9619 84.7943 22.9273 84.9996 22.9388H85.9992C86.247 22.9401 86.485 23.0367 86.6652 23.2091C86.759 23.2842 86.8299 23.3842 86.8714 23.4976C86.9125 23.6112 86.9218 23.7341 86.8985 23.8527C86.8014 24.3319 86.6087 24.7857 86.3324 25.1867C85.9717 25.7208 85.5134 26.1797 84.9819 26.5383C84.3048 26.9976 83.5637 27.3508 82.7825 27.5857C81.7824 27.8813 80.7427 28.0202 79.7011 27.9976C78.6716 28.0137 77.6506 27.812 76.7023 27.4055C75.8325 27.0246 75.0452 26.4734 74.3858 25.7836C73.7161 25.0768 73.178 24.2524 72.7991 23.3507C72.3903 22.3795 72.1425 21.3465 72.066 20.2935C71.9563 19.2612 71.9582 18.2199 72.0706 17.188ZM75.0363 17.2893H84.3981V17.188C84.3981 15.8138 83.9702 14.7154 83.1143 13.8926C82.2584 13.0699 81.1202 12.659 79.6997 12.6601C79.0856 12.6549 78.4756 12.764 77.9002 12.9819C77.3584 13.1876 76.8605 13.4974 76.4344 13.8943C76.0061 14.2975 75.6654 14.7868 75.4344 15.3311C75.1847 15.9183 75.0484 16.5487 75.033 17.188L75.0363 17.2893Z" fill="#979797"/>
<path d="M98.5614 10.092C98.8004 10.0928 99.0295 10.189 99.1994 10.3596C99.3692 10.5303 99.4658 10.7619 99.4691 11.0043V12.0856C99.4663 12.3267 99.3706 12.557 99.2022 12.7275C99.0342 12.898 98.8069 12.995 98.5694 12.998H96.629C94.0791 12.998 92.8051 14.2933 92.8051 16.8838V26.7506C92.8018 26.9916 92.7062 27.222 92.5382 27.3924C92.3702 27.5629 92.1429 27.66 91.9049 27.6629H90.6724C90.4344 27.66 90.2072 27.5629 90.0392 27.3924C89.8712 27.222 89.7755 26.9916 89.7722 26.7506V11.0043C89.7755 10.7633 89.8712 10.5329 90.0392 10.3625C90.2072 10.192 90.4344 10.0949 90.6724 10.092H91.9049C92.1429 10.0949 92.3702 10.192 92.5382 10.3625C92.7062 10.5329 92.8018 10.7633 92.8051 11.0043V12.0519C93.1952 11.4233 93.7426 10.9104 94.3913 10.5651C95.0124 10.2497 95.823 10.092 96.824 10.092H98.5614Z" fill="#979797"/>
<path fill-rule="evenodd" clip-rule="evenodd" d="M11.6001 0H0.615112V27.6822H12.0619L12.2697 27.6806L12.476 27.6742L12.6807 27.6661L12.8838 27.6549L13.0853 27.6388L13.2836 27.6195L13.4804 27.5986L13.6772 27.5729L13.8691 27.5439L14.0611 27.5117L14.2499 27.4763L14.4372 27.4377L14.6229 27.3942L14.8053 27.3492L14.9862 27.3009L15.164 27.2478L15.3401 27.1931L15.5146 27.1335L15.686 27.0708L15.8542 27.0064L16.0208 26.9373L16.1858 26.8648L16.3477 26.7908L16.5063 26.712L16.6634 26.6299L16.8157 26.5447L16.968 26.4561L17.1156 26.366L17.2616 26.2711L17.4044 26.173L17.5456 26.0716L17.6821 25.967L17.817 25.8608L17.9487 25.7498L18.0772 25.6355L18.2026 25.5181L18.3263 25.399L18.4453 25.2751L18.5612 25.1496L18.6754 25.0192L18.7849 24.8873L18.8928 24.7506L18.9959 24.6121L19.0959 24.4706L19.1942 24.3241L19.2879 24.1761L19.3783 24.0248L19.464 23.8704L19.5481 23.7143L19.629 23.5534L19.7052 23.3893L19.7782 23.2219L19.8464 23.053L19.9115 22.8808L19.9733 22.7054L20.0321 22.5268L20.0876 22.345L20.1368 22.1599L20.1844 21.9717L20.2272 21.7818L20.2653 21.5871L20.3018 21.3908L20.3319 21.1913L20.3589 20.9886L20.3827 20.7826L20.4018 20.5751L20.4161 20.3626L20.4271 20.1486L20.4335 19.9314L20.4351 19.711L20.4303 19.439L20.4192 19.1719L20.4002 18.9129L20.3748 18.6603L20.3414 18.4156L20.3002 18.1776L20.2542 17.9459L20.2018 17.7205L20.1431 17.5034L20.0797 17.2909L20.0098 17.085L19.9337 16.8855L19.8543 16.6924L19.7687 16.5057L19.6798 16.3255L19.5862 16.1501L19.4878 15.9812L19.3863 15.8171L19.2815 15.6594L19.172 15.5081L19.061 15.3617L18.9451 15.2201L18.8293 15.0833L18.7087 14.953L18.5881 14.8275L18.4644 14.7068L18.339 14.5909L18.212 14.4799L18.0835 14.3737L17.955 14.2707L17.8265 14.1742L17.6964 14.0825L17.5663 13.994L17.4361 13.9103L17.1775 13.7542L16.922 13.6143L16.6713 13.4904L16.7872 13.4324L17.0283 13.2989L17.2759 13.1396L17.5281 12.9577L17.6551 12.8564L17.7821 12.7518L17.909 12.6392L18.0359 12.5217L18.1613 12.3978L18.2867 12.2691L18.4088 12.1339L18.531 11.9923L18.65 11.8475L18.7658 11.6946L18.8785 11.5369L18.9896 11.3744L19.0959 11.2055L19.199 11.0317L19.299 10.8515L19.3926 10.6665L19.4815 10.4766L19.5656 10.2803L19.6449 10.0775L19.7163 9.87159L19.7829 9.65916L19.8432 9.44193L19.8972 9.21989L19.9416 8.99141L19.9797 8.75971L20.0098 8.51998L20.0321 8.27699L20.0463 8.02919L20.0511 7.77658L20.0479 7.57381L20.0431 7.37268L20.0337 7.17481L20.0209 6.98007L20.0035 6.78538L19.9829 6.59391L19.9591 6.40565L19.9305 6.21903L19.8988 6.03395L19.8623 5.85214L19.8242 5.67196L19.7813 5.49332L19.7337 5.31795L19.6846 5.14575L19.6306 4.97518L19.5735 4.80788L19.5132 4.64214L19.4481 4.478L19.3815 4.31873L19.3085 4.15942L19.2339 4.00494L19.1562 3.8521L19.0736 3.70085L18.9896 3.55439L18.9007 3.40799L18.8087 3.26639L18.7135 3.1264L18.6135 2.98963L18.512 2.85608L18.4056 2.72414L18.2962 2.59541L18.1851 2.46991L18.0692 2.34601L17.9502 2.22694L17.8281 2.10947L17.7027 1.99523L17.5742 1.88421L17.4409 1.77479L17.3061 1.6702L17.168 1.56722L17.0268 1.46746L16.8808 1.37092L16.7332 1.27759L16.5825 1.18748L16.4285 1.1006L16.2715 1.01693L16.1096 0.934864L15.9462 0.857631L15.7796 0.783613L15.6098 0.7112L15.4385 0.643622L15.2623 0.579259L15.083 0.518117L14.9021 0.460191L14.7165 0.405482L14.5292 0.353995L14.3388 0.305721L14.1453 0.260667L13.9485 0.218832L13.7501 0.181824L13.5471 0.148033L13.3423 0.117461L13.1345 0.0901073L12.9234 0.0659713L12.7092 0.0466628L12.4935 0.0289631L12.2745 0.0160906L12.0523 0.00804529L11.8286 0.00160906L11.6001 0Z" fill="#979797"/>
<path d="M108.252 27.1738C107.335 26.729 106.607 26.1253 106.054 25.3628C105.516 24.6002 105.247 23.7424 105.247 22.8051C105.247 21.3436 105.848 20.1362 107.034 19.1989C108.221 18.2617 109.866 17.6421 111.922 17.3244L116.904 16.6254V15.6564C116.904 13.3688 115.591 12.225 112.95 12.225C111.938 12.225 111.115 12.4315 110.498 12.8445C109.881 13.2576 109.423 13.7341 109.138 14.2902C109.043 14.5126 108.948 14.6555 108.853 14.735C108.758 14.8144 108.616 14.8462 108.442 14.8462H107.145C106.94 14.8462 106.781 14.7667 106.623 14.6238C106.481 14.4808 106.401 14.306 106.401 14.0995C106.401 13.5912 106.639 12.9875 107.113 12.3203C107.588 11.6372 108.331 11.0494 109.327 10.5569C110.324 10.0645 111.542 9.81031 112.981 9.81031C115.465 9.81031 117.236 10.3822 118.311 11.5419C119.387 12.7015 119.925 14.1472 119.925 15.8788V26.7131C119.925 26.9355 119.846 27.1261 119.703 27.2691C119.561 27.4121 119.371 27.4915 119.15 27.4915H117.694C117.473 27.4915 117.299 27.4121 117.157 27.2691C117.03 27.1261 116.951 26.9355 116.951 26.7131V25.2516C116.461 25.9823 115.749 26.6019 114.832 27.0785C113.914 27.555 112.712 27.8092 111.241 27.8092C110.181 27.841 109.169 27.6186 108.252 27.1738ZM115.512 23.9648C116.445 23.0116 116.904 21.6137 116.904 19.8026V18.8654L113.013 19.4373C111.415 19.6597 110.213 20.0409 109.391 20.5652C108.568 21.1053 108.157 21.7725 108.157 22.5668C108.157 23.4723 108.521 24.1872 109.264 24.6638C110.008 25.1562 110.894 25.3946 111.906 25.3946C113.393 25.3946 114.579 24.9179 115.512 23.9648Z" fill="#979797"/>
<path d="M123.072 6.66484C122.93 6.52185 122.851 6.33122 122.851 6.10885V4.37725C122.851 4.15485 122.93 3.96422 123.072 3.80535C123.215 3.6465 123.404 3.56706 123.626 3.56706H125.571C125.793 3.56706 125.982 3.6465 126.141 3.80535C126.299 3.96422 126.378 4.15485 126.378 4.37725V6.12472C126.378 6.34713 126.299 6.53777 126.141 6.68075C125.982 6.82369 125.793 6.90312 125.571 6.90312H123.61C123.389 6.88725 123.215 6.80783 123.072 6.66484ZM123.325 27.285C123.183 27.142 123.104 26.9514 123.104 26.729V10.9223C123.104 10.6999 123.183 10.5093 123.325 10.3663C123.467 10.2233 123.657 10.1439 123.879 10.1439H125.334C125.555 10.1439 125.745 10.2233 125.888 10.3663C126.03 10.5093 126.109 10.6999 126.109 10.9223V26.729C126.109 26.9514 126.03 27.142 125.888 27.285C125.745 27.428 125.555 27.5074 125.334 27.5074H123.879C123.657 27.5074 123.483 27.428 123.325 27.285Z" fill="#979797"/>
<path d="M99.7902 27.2849C99.6478 27.142 99.569 26.9514 99.569 26.7289V24.4254C99.569 24.2031 99.6478 24.0124 99.7902 23.8535C99.9325 23.6947 100.122 23.6152 100.344 23.6152H102.637C102.859 23.6152 103.048 23.6947 103.191 23.8535C103.333 24.0124 103.412 24.2031 103.412 24.4254V26.7289C103.412 26.9514 103.333 27.142 103.191 27.2849C103.048 27.4279 102.859 27.5073 102.637 27.5073H100.344C100.107 27.5073 99.9325 27.4279 99.7902 27.2849Z" fill="#979797"/>
<path d="M133.193 3.21959C133.385 3.21959 133.525 3.18109 133.609 3.1076C133.693 3.0376 133.739 2.91861 133.739 2.75062C133.739 2.58612 133.693 2.47063 133.609 2.39713C133.525 2.32714 133.385 2.29214 133.193 2.29214H132.801V3.21959H133.193ZM132.801 3.86006V5.22499H131.87V1.61667H133.291C133.767 1.61667 134.113 1.69717 134.333 1.85816C134.557 2.01565 134.666 2.26764 134.666 2.61412C134.666 2.85211 134.61 3.0481 134.494 3.20209C134.379 3.35258 134.207 3.46808 133.973 3.53808C134.102 3.56958 134.214 3.63607 134.316 3.73757C134.417 3.83906 134.519 3.99305 134.62 4.20304L135.128 5.22499H134.137L133.697 4.32904C133.609 4.15055 133.518 4.02455 133.427 3.96156C133.336 3.89506 133.214 3.86006 133.063 3.86006H132.801Z" fill="#979797"/>
</svg>
