<svg width="66" height="66" viewBox="0 0 66 66" fill="none" xmlns="http://www.w3.org/2000/svg">
<rect x="1" y="1" width="64" height="64" rx="16" fill="white"/>
<rect x="1" y="1" width="64" height="64" rx="16" stroke="#010039"/>
<path d="M24.609 22.8125L34.792 32.9985L24.61 43.1845C24.4289 43.1084 24.2744 42.9804 24.1659 42.8167C24.0574 42.653 23.9996 42.4609 24 42.2645V23.7325C24.0001 23.5363 24.0579 23.3445 24.1661 23.1809C24.2744 23.0173 24.4284 22.8892 24.609 22.8125ZM35.499 33.7055L37.801 36.0075L26.864 42.3405L35.499 33.7055ZM38.698 30.5075L41.505 32.1335C41.6565 32.2214 41.7823 32.3476 41.8698 32.4994C41.9572 32.6512 42.0032 32.8233 42.0032 32.9985C42.0032 33.1737 41.9572 33.3458 41.8698 33.4976C41.7823 33.6494 41.6565 33.7756 41.505 33.8635L38.697 35.4895L36.206 32.9985L38.698 30.5075ZM26.864 23.6565L37.802 29.9885L35.499 32.2915L26.864 23.6565Z" fill="#010039"/>
</svg>
