<svg width="219" height="28" viewBox="0 0 219 28" fill="none" xmlns="http://www.w3.org/2000/svg">
<path d="M14.7698 27.2022C21.8465 27.2022 27.5834 21.3441 27.5834 14.1177C27.5834 6.89129 21.8465 1.03314 14.7698 1.03314C7.69307 1.03314 1.95624 6.89129 1.95624 14.1177C1.95624 21.3441 7.69307 27.2022 14.7698 27.2022Z" fill="white"/>
<path d="M21.5809 16.9153L19.4762 18.0662V18.1041C20.0758 18.3782 20.7308 18.5094 21.3897 18.4876C21.8814 18.5026 22.3724 18.4385 22.8438 18.2978V9.66806L22.2695 9.63009L21.5444 10.3215V16.9182L21.5809 16.9153ZM5.20329 12.6194V12.4296C5.20329 10.8564 5.24126 10.7036 6.92505 8.4408L6.88709 8.40284L5.51082 9.16975H4.47957C3.94425 9.16975 3.75489 9.20772 3.56126 9.43836C3.49696 9.51831 3.45009 9.61082 3.42369 9.70997C3.39729 9.80911 3.39194 9.91268 3.40798 10.014H3.21813C3.04447 9.75267 2.95139 9.44605 2.95048 9.13226C2.93905 8.90734 2.97388 8.68246 3.05281 8.47154C3.13175 8.26061 3.25311 8.06812 3.4094 7.90595C3.61113 7.72752 3.84864 7.59419 4.10602 7.51489C4.36341 7.43559 4.63475 7.41213 4.90193 7.44609L6.39448 7.56094L7.42764 7.44609L7.58093 7.52297V15.8845C7.58093 16.8835 7.54248 17.1882 5.39787 19.2597L5.43631 19.3366L7.34981 18.7609H8.53625V7.36589H9.11048V12.6204H11.2537V8.82379L13.972 7.32792L14.1253 7.4048L13.8197 9.66806V18.0296L15.1205 18.9883V19.1416L13.1306 20.4452H12.9759L11.2921 18.8345V14.27H9.14654V19.4097L7.53963 20.4837H3.79048L3.71407 20.3304C5.1677 18.527 5.2835 17.9912 5.2835 16.9552V14.3089H2.87218L2.83373 14.1552L3.90532 12.6593H5.20567L5.20329 12.6194ZM17.4474 14.4228C17.4267 14.9847 17.5175 15.5451 17.7146 16.0717C17.9116 16.5983 18.211 17.0807 18.5954 17.491C18.7158 17.6283 18.858 17.7448 19.0163 17.836H19.0548L19.5137 17.2603V10.6637L21.5036 9.58975V9.55179C20.7695 9.42588 20.0278 9.34898 19.2835 9.32162C17.8299 9.32162 17.2556 9.59023 16.8347 10.0131C16.5701 10.2971 16.4084 10.6618 16.3758 11.0486H16.0697C15.9272 10.6811 15.8495 10.2918 15.84 9.89775C15.8307 9.57818 15.8871 9.26012 16.0058 8.96323C16.1244 8.66634 16.3026 8.39695 16.5295 8.17172C17.1033 7.59653 18.0221 7.25104 19.4743 7.25104C20.5459 7.25104 22.3056 7.59606 23.7977 7.59606C24.8308 7.59606 25.1369 7.44277 25.5958 6.78928L25.7857 6.82724C25.4411 9.05253 24.5992 9.66521 23.4522 9.66521H23.3373V18.0652C24.2431 17.7339 24.9933 17.0776 25.4421 16.2239L25.6319 16.2618C25.5991 17.2884 25.1746 18.2635 24.4455 18.9868C23.9293 19.4728 23.3222 19.8517 22.6589 20.1018C21.9956 20.352 21.2894 20.4684 20.581 20.4443C19.8992 20.4838 19.2167 20.3811 18.5769 20.1425C17.937 19.904 17.3538 19.5349 16.8644 19.0587C16.3749 18.5825 15.9899 18.0096 15.7339 17.3765C15.4779 16.7435 15.3564 16.064 15.3773 15.3815C15.3712 14.7852 15.483 14.1937 15.7062 13.6408C15.9295 13.0879 16.2597 12.5845 16.6781 12.1596C17.228 11.5998 17.8942 11.1677 18.6295 10.8939L18.7439 11.0472C17.919 11.9795 17.4571 13.1776 17.4426 14.4224M28.8448 14.0005C28.8685 12.1698 28.529 10.3527 27.846 8.65409C27.1629 6.95551 26.1499 5.4092 24.8655 4.1046C22.1317 1.47125 18.4837 0 14.6879 0C10.8922 0 7.24415 1.47125 4.51042 4.1046C1.95733 6.76611 0.531799 10.3114 0.531799 13.9995C0.531799 17.6876 1.95733 21.2329 4.51042 23.8944C7.24446 26.5274 10.8925 27.9983 14.6882 27.9983C18.4839 27.9983 22.1319 26.5274 24.8659 23.8944C27.4453 21.2495 28.8755 17.6928 28.8453 13.9986" fill="#979797"/>
<path d="M39.3022 24.3875L38.8846 24.7055C38.2435 24.2657 37.4785 24.0427 36.7015 24.069C35.8249 24.0699 34.9601 24.272 34.1739 24.6599V24.6362C35.0566 24.0613 36.0906 23.7625 37.1438 23.7777C37.9123 23.7352 38.6729 23.9514 39.3041 24.3918M208.582 24.0235C208.607 23.8612 208.674 23.7085 208.779 23.5817C209.056 23.4921 209.346 23.4505 209.637 23.4587C210.86 23.4019 212.058 23.8249 212.975 24.6376L212.582 24.8829C211.748 24.0724 210.399 23.8517 209.489 23.8517C209.178 23.8493 208.869 23.9077 208.58 24.0235M101.971 24.0235C101.996 23.8612 102.064 23.7085 102.168 23.5817C102.445 23.4922 102.735 23.4508 103.026 23.4592C104.187 23.4288 105.314 23.8516 106.169 24.6381L105.776 24.8834C104.963 24.2082 103.938 23.8428 102.881 23.8522C102.57 23.8523 102.262 23.9105 101.972 24.024M60.978 22.4038C61.688 23.1846 62.4967 23.8697 63.3836 24.4416L62.8925 24.7596C62.0212 24.1861 61.2289 23.501 60.5357 22.7217L60.978 22.4038ZM178.018 22.4038C178.728 23.1846 179.536 23.8696 180.423 24.4416L179.932 24.7596C179.061 24.1861 178.268 23.501 177.575 22.7217L178.018 22.4038ZM135.428 22.4038C136.138 23.1846 136.946 23.8697 137.833 24.4416L137.342 24.7596C136.471 24.1862 135.678 23.5011 134.985 22.7217L135.428 22.4038ZM170.702 22.2566C171.449 23.1265 172.337 23.8652 173.329 24.4421L172.839 24.76C171.875 24.1663 171.006 23.4303 170.262 22.577L170.702 22.2566ZM53.6358 22.2566C54.389 23.1208 55.2758 23.8587 56.2626 24.4421L55.7714 24.76C54.8073 24.1663 53.9383 23.4303 53.194 22.577L53.6358 22.2566ZM114.317 21.9387C115.35 22.9456 116.505 23.8198 117.754 24.5412L117.263 24.8848C116.026 24.1567 114.888 23.2738 113.875 22.2576L114.317 21.9387ZM124.331 24.7619C123.436 24.23 122.652 23.5298 122.023 22.6999V20.2914C122.033 19.57 122 18.8487 121.925 18.1312L122.441 17.9347C122.465 18.5255 122.514 19.2849 122.514 20.0465V22.5238C123.148 23.3034 123.933 23.9466 124.822 24.4145L124.331 24.7619ZM215.204 22.7744V18.5269L213.755 17.8905L214.05 17.5726L215.695 18.2844V23.1612L215.622 23.1849L215.204 22.7744ZM108.399 22.7744V18.5269L106.95 17.8905L107.244 17.5726L108.89 18.2844V23.1612L108.816 23.1849L108.399 22.7744ZM125.606 18.7476C125.574 18.0392 125.631 17.3295 125.778 16.6358C126.492 16.832 127.223 16.9634 127.961 17.0282V22.1788C127.569 22.3506 127.151 22.4968 126.807 22.67C126.376 22.4213 125.979 22.1156 125.629 21.7612V18.7419L125.606 18.7476ZM42.0737 14.2031H45.6084V14.6202H42.0737V14.2031ZM32.6966 14.7436L33.1384 14.2031H35.8615V14.6202H34.6832C34.0182 14.6046 33.3531 14.6457 32.6952 14.7431M77.9602 24.4416L77.4691 24.7596C76.4944 24.168 75.6442 23.3926 74.9657 22.4764V15.4526C74.9657 13.7831 74.9419 13.0707 74.8921 12.4818L75.4322 12.2611V22.3041C76.1174 23.1837 76.9782 23.911 77.9598 24.4397M122.292 14.1029C123.151 13.5121 123.961 12.8762 124.772 12.2127C125.734 12.8724 126.819 13.3316 127.963 13.5629V16.4844C125.435 16.2637 123.618 15.4536 122.292 14.1029ZM201.656 12.2094L201.73 12.1857C202.395 13.5843 203.193 14.9163 204.111 16.1636L201.658 17.489L201.656 12.2094ZM212.628 18.7158L212.31 19.0594L209.07 17.537V13.879C209.069 13.3131 209.036 12.7478 208.972 12.1857L209.563 12.0139V17.2926L212.628 18.7158ZM105.823 18.7158L105.505 19.0594L102.265 17.537V13.879C102.264 13.3131 102.231 12.7478 102.167 12.1857L102.758 12.0139V17.2926L105.823 18.7158ZM167.117 22.3516C166.3 23.2127 165.313 23.895 164.218 24.3556C163.124 24.8162 161.945 25.045 160.758 25.0277C157.958 25.0277 155.751 24.1189 154.106 22.5238C153.359 21.7779 152.769 20.8893 152.373 19.9109C151.976 18.9326 151.781 17.8844 151.798 16.8289C151.802 15.9092 151.995 15.0002 152.367 14.159C152.739 13.3178 153.281 12.5626 153.958 11.9408L153.982 11.9645C152.858 13.2457 152.254 14.901 152.289 16.6049C152.282 17.6448 152.482 18.6757 152.879 19.6369C153.276 20.5981 153.861 21.4701 154.601 22.2016C156.122 23.724 158.235 24.5588 160.934 24.5588C163.201 24.6351 165.413 23.845 167.119 22.3492L167.117 22.3516ZM114.269 12.1121H113.411L113.656 11.6703H114.27L114.269 12.1121ZM121.02 11.6949L120.627 12.2108C119.863 12.1131 119.091 12.0802 118.321 12.1126V11.6707H120.972L121.02 11.6949ZM201.977 24.8312C200.538 23.5956 199.215 22.2314 198.024 20.7556V14.5434C198.024 13.3161 197.951 12.2355 197.901 11.8164L198.417 11.694C198.498 12.4934 198.531 13.2968 198.515 14.1001V20.5572C199.704 21.9966 201.019 23.3278 202.443 24.5351L201.977 24.8312ZM130.716 24.4387L130.225 24.7567C129.462 24.124 128.8 23.3789 128.261 22.5471V13.3403C127.083 13.106 125.965 12.6381 124.971 11.964L125.314 11.6204C126.35 12.3103 127.508 12.7937 128.727 13.0442V22.3497C129.303 23.1228 129.971 23.8238 130.715 24.4378M70.4021 24.4378L69.911 24.7558C69.1508 24.2193 68.4584 23.5927 67.8489 22.8897V12.7993C67.5338 12.3427 67.1337 11.951 66.6706 11.6456L67.1124 11.4491C67.5926 11.7801 68.0083 12.196 68.3392 12.6764V22.7194C68.9541 23.374 69.6465 23.9513 70.4012 24.4383M144.829 24.4383L144.337 24.7562C143.577 24.2198 142.885 23.5932 142.275 22.8902V12.7993C141.96 12.3428 141.56 11.9511 141.097 11.6456L141.539 11.4491C142.019 11.7801 142.435 12.196 142.766 12.6764V22.7194C143.386 23.3682 144.079 23.9449 144.829 24.4383ZM187.443 24.4383L186.951 24.7562C186.191 24.2198 185.499 23.5932 184.889 22.8902V12.7993C184.574 12.3427 184.174 11.951 183.711 11.6456L184.153 11.4491C184.633 11.7801 185.049 12.196 185.38 12.6764V22.7194C186 23.3683 186.693 23.9449 187.443 24.4383ZM194.07 24.4383L193.579 24.7562C192.819 24.2198 192.126 23.5932 191.517 22.8902V12.7993C191.191 12.3267 190.774 11.925 190.289 11.6185L190.73 11.4221C191.213 11.7683 191.636 12.1912 191.982 12.674V22.717C192.618 23.3599 193.318 23.9359 194.071 24.4359M135.676 21.9316V12.7248C135.392 12.2981 135.045 11.9172 134.646 11.5953L135.063 11.3746C135.479 11.7098 135.85 12.0976 136.167 12.5283V21.5657L135.726 21.9093H135.678L135.676 21.9316ZM170.951 21.7598V12.7267C170.659 12.3063 170.312 11.9266 169.92 11.5977L170.337 11.377C170.753 11.7124 171.124 12.1002 171.441 12.5307V21.4185L170.999 21.7621L170.951 21.7598ZM89.4042 22.2998C90.0627 23.1892 90.9199 23.9124 91.9076 24.4117L91.4164 24.7297C90.4216 24.1654 89.5661 23.3852 88.913 22.4465V12.3579C88.5837 12.0525 88.2117 11.7967 87.8087 11.5986L88.2258 11.3779C88.6421 11.6177 89.0289 11.9055 89.3781 12.2355V22.3017L89.4042 22.2998ZM178.292 21.9316V12.7248C178.008 12.2983 177.66 11.9176 177.262 11.5958L177.679 11.3751C178.095 11.7101 178.466 12.0977 178.783 12.5283V21.5633L178.341 21.9069H178.294L178.292 21.9316ZM53.9111 21.7598V12.7267C53.6192 12.3062 53.2725 11.9266 52.8803 11.5977L53.2975 11.377C53.7137 11.7125 54.0849 12.1005 54.4018 12.5311V21.4185L53.96 21.7621H53.9125L53.9111 21.7598ZM61.2262 21.9316V12.7248C60.942 12.2983 60.5944 11.9176 60.1954 11.5958L60.6126 11.3751C61.0291 11.7103 61.4003 12.0981 61.7169 12.5288V21.5657L61.2751 21.9093H61.2276L61.2262 21.9316ZM95.5438 11.9878C95.3248 11.799 95.0861 11.6343 94.8319 11.4966L95.2491 11.2754C95.5268 11.4384 95.7821 11.6371 96.0084 11.8663V22.3501C96.5363 23.1553 97.2009 23.8619 97.9722 24.4383L97.481 24.7562C96.6759 24.1387 96.0073 23.3614 95.5172 22.473V11.9906L95.5438 11.9878ZM78.7044 14.5158C78.7044 12.4277 78.7779 11.6209 79.0224 10.8801C79.636 11.2237 80.3478 11.6394 81.2054 12.1567V22.1005C80.764 22.2723 80.2966 22.4441 79.8799 22.641C79.4445 22.3784 79.048 22.056 78.702 21.6833L78.7044 14.5158ZM217.448 12.6498L217.104 13.0916C216.9 13.1617 216.684 13.1949 216.468 13.1899C215.709 13.1888 214.96 13.0212 214.272 12.6987C213.585 12.3763 212.977 11.907 212.491 11.3238V10.8326H212.565C213.057 11.4323 213.675 11.9167 214.375 12.2518C215.075 12.5869 215.839 12.7645 216.615 12.7722C216.901 12.7625 217.184 12.7044 217.45 12.6004L217.448 12.6498ZM110.668 12.6498L110.324 13.0916C110.12 13.1616 109.905 13.1949 109.689 13.1899C108.929 13.1888 108.18 13.0212 107.493 12.6988C106.806 12.3763 106.197 11.907 105.712 11.3238V10.8326H105.785C106.278 11.4323 106.895 11.9167 107.595 12.2518C108.295 12.5869 109.06 12.7645 109.836 12.7722C110.122 12.7625 110.404 12.7044 110.67 12.6004L110.668 12.6498ZM204.364 16.0383C203.329 14.5917 202.425 13.0558 201.663 11.4486V10.6893L201.737 10.6656C202.564 12.4958 203.585 14.2325 204.781 15.8461L204.364 16.0383ZM183.567 22.866L183.371 22.548C183.125 22.6463 182.88 22.7445 182.659 22.8427C182.429 22.7235 182.215 22.575 182.023 22.4009V12.4305C182.44 12.2099 182.932 11.9887 183.399 11.7941C183.861 12.0913 184.261 12.4748 184.578 12.9236V23.09C185.257 23.9044 186.051 24.6158 186.934 25.2019H187.008C188.13 24.3458 189.303 23.5586 190.52 22.8446L190.323 22.5267L189.636 22.8214C189.258 22.6071 188.918 22.3338 188.628 22.0118V12.4348C189.045 12.2141 189.536 11.993 190.004 11.7984C190.466 12.0957 190.866 12.4792 191.182 12.9279V23.0928C191.861 23.9071 192.655 24.6183 193.539 25.2042H193.613C194.889 24.2465 195.895 23.5347 197.368 22.6263L197.172 22.3084C196.86 22.4635 196.541 22.6027 196.215 22.7255C195.849 22.5578 195.523 22.3153 195.257 22.0137V11.9408C194.68 10.8564 193.803 9.96131 192.73 9.36287H192.656C191.176 9.97257 189.8 10.81 188.578 11.8449C188.015 10.7907 187.152 9.92741 186.098 9.36477H186.025C184.559 9.96055 183.199 10.7901 181.999 11.8212C181.402 10.8718 180.637 10.0393 179.741 9.36477H179.667C178.214 10.1284 176.855 11.0586 175.617 12.1368L175.862 12.4315C176.18 12.2108 176.574 11.9897 176.918 11.7951C177.284 12.1164 177.621 12.4696 177.925 12.8505V22.1048C177.63 22.3254 177.384 22.5219 177.114 22.7189V22.7924C177.928 23.713 178.86 24.5222 179.885 25.199H179.959C181.108 24.3424 182.313 23.5632 183.566 22.8665M59.7489 22.596L59.5524 22.278C59.1352 22.4498 58.7931 22.596 58.448 22.7692C58.1475 22.6058 57.8673 22.4075 57.6133 22.1783V11.8193C57.0303 10.8526 56.2631 10.01 55.3552 9.33915H55.2817C53.8284 10.1027 52.4691 11.0329 51.2312 12.1112L51.4765 12.4059C51.8173 12.1759 52.1696 11.9635 52.532 11.7695C52.8981 12.0909 53.235 12.4443 53.5386 12.8254V21.8851C53.2805 22.1121 53.0098 22.3246 52.728 22.5215V22.595C53.5796 23.6112 54.5911 24.4818 55.7226 25.1729H55.7961C57.1458 24.2152 58.1775 23.5285 59.7489 22.596ZM141.272 22.6933L141.075 22.3753C140.683 22.5471 140.363 22.67 140.02 22.8166C139.798 22.6941 139.592 22.5456 139.406 22.3743V12.4082C139.823 12.1871 140.315 11.9664 140.782 11.7723C141.244 12.0695 141.644 12.453 141.961 12.9018V23.0667C142.64 23.881 143.434 24.5922 144.317 25.1781H144.391C145.589 24.2425 146.843 23.3816 148.147 22.6002L147.95 22.2823C147.638 22.4374 147.319 22.5766 146.993 22.6994C146.628 22.5316 146.302 22.2891 146.036 21.9876V11.9152C145.459 10.8307 144.581 9.93569 143.508 9.33725H143.434C141.968 9.93303 140.608 10.7626 139.408 11.7937C138.811 10.8443 138.046 10.0118 137.15 9.33725H137.075C135.622 10.1016 134.262 11.0326 133.025 12.1116L133.27 12.4063C133.611 12.1765 133.963 11.9643 134.326 11.7704C134.692 12.0917 135.029 12.4449 135.332 12.8259V22.0801C135.074 22.3005 134.804 22.5056 134.522 22.6942V22.7678C135.336 23.6883 136.269 24.4973 137.296 25.1739H137.369C138.615 24.2631 139.918 23.4341 141.272 22.6933ZM92.6436 11.4762C91.9765 10.6503 91.1807 9.93723 90.2869 9.36431H90.2133C88.7896 10.2228 87.9059 10.9095 86.4575 11.9422L86.654 12.2602C86.9482 12.0884 87.2449 11.9422 87.512 11.769C87.895 11.9757 88.2498 12.2309 88.5675 12.5283V22.6192C89.3042 23.657 90.2601 24.5201 91.3675 25.1473H91.4411C92.6194 24.2888 93.9207 23.4042 95.1722 22.6434C95.7913 23.5971 96.5624 24.4429 97.4549 25.1473H97.5284C98.8046 24.2143 100.229 23.183 101.431 22.4208L101.235 22.1029C100.842 22.2747 100.498 22.4465 100.131 22.6187C99.8171 22.3984 99.5293 22.1437 99.2725 21.8594V12.4315C99.5668 12.2103 99.7884 12.0143 100.083 11.8174V11.7438C99.2312 10.8625 98.3038 10.0574 97.3116 9.33773H97.238C95.7668 10.1962 94.7583 10.8602 93.3351 11.8416L93.5316 12.1596L94.4888 11.6437C94.7426 11.782 94.9812 11.9466 95.2007 12.1349V22.0787C94.7095 22.2751 94.2681 22.4711 93.8244 22.6695C93.3888 22.4069 92.9922 22.0845 92.646 21.7118L92.6436 11.4762ZM176.816 22.5983L176.62 22.2804C176.203 22.4522 175.861 22.5983 175.516 22.7716C175.215 22.6081 174.935 22.4098 174.681 22.1807V11.8174C174.098 10.8507 173.331 10.008 172.423 9.33725H172.35C170.896 10.1008 169.537 11.0311 168.299 12.1093L168.545 12.404C168.885 12.174 169.238 11.9616 169.6 11.7676C169.966 12.089 170.303 12.4424 170.607 12.8235V21.8832C170.348 22.1102 170.078 22.3227 169.796 22.5196V22.5931C170.648 23.6093 171.659 24.48 172.791 25.171H172.864C174.135 24.2419 175.454 23.3813 176.817 22.5931M66.82 22.6914L66.6236 22.3734C66.2311 22.5452 65.9117 22.6686 65.5681 22.8152C65.3468 22.6927 65.1408 22.5444 64.9545 22.3734V12.4073C65.3716 12.1861 65.8633 11.9655 66.3308 11.7714C66.7925 12.0685 67.1926 12.4521 67.5091 12.9008V23.0658C68.1883 23.88 68.9822 24.5912 69.8659 25.1772H69.9394C71.1372 24.2415 72.3915 23.3806 73.6952 22.5993L73.4988 22.2813C73.1869 22.4364 72.8674 22.5757 72.5415 22.6985C72.1762 22.5307 71.8501 22.2882 71.5843 21.9866V11.9152C71.0071 10.8308 70.1295 9.93576 69.0567 9.33725H68.9832C67.5173 9.93305 66.1577 10.7626 64.9573 11.7937C64.3603 10.8443 63.5951 10.0119 62.6993 9.33725H62.6257C61.1724 10.1016 59.8131 11.0327 58.5752 12.1116L58.8211 12.4063C59.1618 12.1765 59.5141 11.9643 59.8765 11.7704C60.2427 12.0917 60.5795 12.4449 60.8831 12.8259V22.0801C60.6252 22.3005 60.3545 22.5056 60.0725 22.6942V22.7678C60.8873 23.6883 61.82 24.4973 62.8464 25.1739H62.92C64.1692 24.2685 65.4726 23.4402 66.8229 22.6937M201.661 19.058V18.2987L207.798 15.0075V14.9093C206.498 13.1172 205.309 11.247 204.238 9.30926H204.165C202.008 10.2311 199.784 10.9861 197.512 11.5678C197.66 12.6415 197.725 13.7249 197.709 14.8086V20.8984C198.945 22.4577 200.335 23.8886 201.858 25.1696H201.98C203.853 23.9275 205.787 22.7803 207.774 21.7322L207.48 21.2904C206.548 21.7322 205.787 22.1252 205.024 22.4688C203.795 21.4436 202.669 20.3006 201.662 19.0561M130.201 25.1743H130.275C131.551 24.2413 132.975 23.2101 134.178 22.4479L133.981 22.1299C133.589 22.3017 133.245 22.4735 132.877 22.6458C132.563 22.4255 132.276 22.1708 132.019 21.8865V14.2268C131.964 13.3132 132.031 12.3963 132.215 11.4999C130.57 11.1074 127.968 10.0762 126.913 9.31685H126.838C125.289 11.1329 123.477 12.7065 121.462 13.9853V14.0835C122.456 15.2538 123.783 16.0931 125.266 16.4896C124.056 17.0746 122.81 17.583 121.535 18.012C121.653 18.8247 121.71 19.6449 121.707 20.4661V22.9135C122.393 23.8656 123.282 24.6538 124.309 25.2213H124.383C125.537 24.3865 126.788 23.5518 128.018 22.7649C128.611 23.679 129.348 24.4914 130.201 25.171M212.605 25.2446C214.492 23.9485 216.583 22.9775 218.791 22.372C218.663 21.7917 218.606 21.1982 218.619 20.6042V16.6301L214.815 14.9605H214.715L213.61 16.1878L212.456 15.6719V11.8169C212.958 12.3474 213.563 12.7692 214.234 13.0564C214.906 13.3436 215.629 13.49 216.359 13.4865C216.64 13.4796 216.919 13.4468 217.194 13.3882C218.234 12.2929 218.859 10.8686 218.961 9.36145C218.798 9.33681 218.633 9.33681 218.47 9.36145C218.471 9.64265 218.438 9.92294 218.372 10.1962C218.077 10.3223 217.76 10.3891 217.439 10.3927C216.451 10.3705 215.509 9.96555 214.813 9.26322H214.739C212.847 10.5105 210.754 11.424 208.553 11.964C208.682 12.6767 208.74 13.4006 208.725 14.1248V17.7605L212.284 19.3812H212.383L213.512 18.1293L214.861 18.7201V22.5499C213.633 21.5383 212.083 20.9984 210.492 21.0275C210.211 21.0343 209.932 21.0672 209.657 21.1257C208.616 22.2304 207.991 23.6626 207.89 25.1772C208.053 25.2018 208.218 25.2018 208.381 25.1772C208.38 24.896 208.413 24.6157 208.479 24.3424C208.774 24.2162 209.091 24.1495 209.412 24.1459C210.559 24.1045 211.676 24.5094 212.53 25.2754H212.604L212.605 25.2446ZM105.8 25.2446C107.687 23.9485 109.778 22.9776 111.986 22.372C111.858 21.7917 111.8 21.1982 111.814 20.6042V16.6301L108.009 14.9605H107.911L106.807 16.1878L105.653 15.6719V11.8169C106.155 12.3474 106.76 12.7692 107.432 13.0564C108.103 13.3436 108.826 13.49 109.556 13.4865C109.837 13.4796 110.116 13.4468 110.391 13.3882C111.431 12.2929 112.056 10.8686 112.158 9.36145C111.995 9.33681 111.83 9.33681 111.667 9.36145C111.668 9.64265 111.635 9.92293 111.569 10.1962C111.274 10.3223 110.957 10.3891 110.636 10.3927C109.647 10.3706 108.706 9.96567 108.009 9.26322H107.96C106.067 10.5105 103.975 11.424 101.774 11.964C101.903 12.6767 101.96 13.4006 101.945 14.1248V17.7605L105.505 19.3812H105.603L106.732 18.1293L108.082 18.7201V22.5499C106.917 21.5601 105.437 21.02 103.909 21.0275C103.628 21.0343 103.348 21.0672 103.074 21.1257C102.032 22.2301 101.407 23.6622 101.306 25.1767C101.468 25.2013 101.634 25.2013 101.797 25.1767C101.796 24.8955 101.829 24.6152 101.895 24.3419C102.19 24.2158 102.507 24.149 102.828 24.1455C103.909 24.1397 104.953 24.5432 105.749 25.275H105.797L105.8 25.2446ZM158.871 21.1186L158.848 21.0949C159.044 20.579 159.068 20.2364 159.068 18.9346V11.816C159.07 11.0088 158.996 10.2033 158.848 9.40986L159.363 9.18918C159.496 9.98434 159.562 10.7892 159.56 11.5953V18.5687C159.536 20.2383 159.413 20.5819 158.872 21.1224M83.9836 24.4392L83.4924 24.7572C82.7197 24.1062 82.0567 23.3353 81.5286 22.474V11.9901C76.4715 9.11752 75.9068 8.7986 75.416 8.57697L75.2936 7.86511H75.3173L81.9937 11.7937V22.2519C82.5428 23.0754 83.213 23.8114 83.9817 24.4349M162.607 9.72877C162.607 8.57508 162.63 8.18356 163.122 7.69095C163.344 7.71468 163.81 7.78919 164.08 7.81339V21.6857C163.377 21.8832 162.65 21.9824 161.92 21.9804C160.883 21.9898 159.852 21.8152 158.876 21.4646C160.252 20.9245 161.676 20.3104 162.779 19.7713C162.667 18.9741 162.609 18.1702 162.607 17.3652L162.607 9.72877ZM114.592 11.0301C114.592 9.67989 114.519 8.57603 114.47 7.98519L115.061 7.56803H115.084V21.148L114.643 21.4916H114.594L114.592 11.0301ZM38.1499 7.00566C36.8245 8.8717 36.6052 9.28884 36.6052 11.5725V17.7596C36.6052 20.5828 36.4823 21.7133 34.5432 23.9713L34.5194 23.9475C36.0908 21.8855 36.1396 20.7556 36.1396 17.9076V11.6949C36.1396 9.41176 36.3855 8.99414 38.1276 7.00566H38.1499ZM48.6561 24.4383L48.1649 24.7562C47.3122 24.1968 46.5506 23.5095 45.9069 22.7184V9.63053C45.9308 8.69207 45.8568 7.75367 45.6862 6.83054L46.2771 6.41338C46.3809 7.40816 46.4218 8.4085 46.3995 9.40844V22.5243C47.045 23.2792 47.8073 23.9257 48.6575 24.4392M38.3692 5.77793L38.3929 5.80165C37.8702 6.22792 37.2256 6.47718 36.552 6.51352C35.8402 6.51352 35.2266 6.16993 34.5882 6.16993C34.3045 6.16163 34.0219 6.20957 33.7568 6.31098C33.4917 6.41238 33.2493 6.56524 33.0435 6.76077C32.8825 6.90753 32.7495 7.08233 32.651 7.27664H32.6273C32.7012 6.93314 32.8716 6.61786 33.1185 6.36782C33.5597 5.96581 34.1413 5.75356 34.7377 5.77698C35.4254 5.77698 36.114 6.12057 36.8491 6.12057C37.3755 6.11923 37.8952 6.00192 38.3711 5.77698M53.3426 5.48274C53.94 6.24532 54.5878 6.96702 55.2817 7.64301L54.8892 7.88837C54.1985 7.22368 53.5661 6.50094 52.999 5.7281L53.3426 5.48274ZM170.753 5.45902C171.365 6.2234 172.021 6.95226 172.717 7.64207L172.324 7.88743C171.624 7.20955 170.975 6.47979 170.385 5.70437L170.753 5.45902ZM152.512 9.53515C152.641 8.84478 152.964 8.20571 153.445 7.69379C154.354 6.78498 155.703 6.34362 157.495 6.34362C160.295 6.34362 163.632 7.20214 165.817 7.20214C166.946 7.20214 167.878 6.71095 168.639 5.36078L168.713 5.3845C167.902 7.02986 166.946 7.59413 165.693 7.59413C163.51 7.59413 160.22 6.73563 157.372 6.73563C155.605 6.73563 154.352 7.17746 153.469 8.06112C153.053 8.46757 152.734 8.96287 152.536 9.50999H152.512V9.53515ZM118.589 5.01671L118.466 4.94315C116.625 6.09732 115.176 7.1039 114.122 7.914C114.203 8.54094 114.244 9.17249 114.244 9.8047C113.863 10.6701 113.42 11.5069 112.918 12.3086L112.992 12.4068H114.244V21.6383C113.95 21.8589 113.729 22.0307 113.434 22.2291V22.3027C114.54 23.4718 115.804 24.4799 117.19 25.2977H117.263C118.503 24.3662 119.816 23.5371 121.19 22.8185L120.994 22.5006C120.701 22.6165 120.415 22.7475 120.135 22.893C119.494 22.5552 118.878 22.1694 118.294 21.7389V12.4315H118.466C119.228 12.4228 119.99 12.4556 120.749 12.5297C121.927 10.9845 122.442 10.1236 122.639 9.55887L122.566 9.48531C121.606 9.61032 120.639 9.66773 119.671 9.65711H118.294C118.297 8.10558 118.396 6.55617 118.589 5.01671ZM83.4615 25.1743H83.5351C84.8112 24.2413 86.2354 23.2841 87.438 22.4982L87.2415 22.1802C86.8491 22.352 86.505 22.5243 86.1372 22.6961C85.822 22.4584 85.534 22.1866 85.2787 21.8855V13.9777C85.2787 12.2844 85.3522 11.4496 85.4016 10.7861C77.9636 6.19604 75.8773 4.7704 74.7483 3.49426L74.6254 3.518C74.6088 5.29217 74.79 7.06266 75.1655 8.79671C76.2836 9.30381 77.3661 9.88619 78.4054 10.5398C77.1786 11.1539 75.8033 11.7666 74.5025 12.3076C74.6078 13.3845 74.6486 14.4667 74.6249 15.5485V22.6197C75.3616 23.6575 76.3175 24.5205 77.4249 25.1478H77.4985C78.6522 24.313 79.9544 23.4545 81.2049 22.6671C81.8069 23.6263 82.5709 24.4735 83.463 25.171M54.8394 8.30694H54.9129C56.0913 7.49636 56.8767 6.93068 57.9075 6.09732V6.02376C57.2024 5.12393 56.4486 4.26334 55.6495 3.44586H55.5759C54.6187 4.13352 53.6121 4.82214 52.5562 5.70485V5.77841C53.2346 6.6921 53.9994 7.53912 54.8394 8.30694ZM172.199 8.30647H172.273C173.451 7.4959 174.237 6.9302 175.267 6.09685V6.02329C174.562 5.12344 173.808 4.26285 173.009 3.44538H172.936C171.979 4.13305 170.972 4.82166 169.916 5.70437V5.77793C170.601 6.68583 171.366 7.53224 172.199 8.30647ZM42.0272 23.1128L42.051 23.0392V14.9116H45.6103V22.8912C46.3408 23.7677 47.1918 24.5364 48.1379 25.1743H48.2114C49.5719 24.1598 50.9899 23.2249 52.4584 22.3743L52.2619 22.0307C51.8448 22.2025 51.5026 22.3743 51.1329 22.5466C50.6484 22.3155 50.2274 21.9701 49.9062 21.54V8.13468C49.863 6.57148 50.0366 5.00982 50.422 3.49426L50.2996 3.42071C48.5403 4.39844 46.8725 5.53251 45.3165 6.80919C45.5471 7.74849 45.6461 8.71525 45.6108 9.68179V12.1629H42.0785V7.91684C42.0785 5.46281 42.2503 4.79841 42.6693 3.5218L42.5711 3.49806C41.7126 4.67691 41.4174 5.68112 41.4174 8.16315V22.5756C40.8192 22.2656 40.1517 22.1135 39.4783 22.1337C38.5621 22.1386 37.6549 22.3135 36.8026 22.6496L36.7789 22.6259C39.9206 19.8259 40.0188 19.3347 40.0188 17.2978V8.60165C40.0188 6.02375 40.3368 4.89427 41.0254 3.64092L40.9272 3.54268C40.3292 3.91368 39.6427 4.1177 38.9392 4.13353C37.9819 4.13353 36.6811 3.64234 35.527 3.64234C34.6905 3.61964 33.879 3.92818 33.2689 4.50084C32.72 5.05733 32.4118 5.8073 32.4109 6.58897C32.4124 7.01384 32.4787 7.436 32.6074 7.84091H32.6809C32.7695 7.53175 32.939 7.25191 33.1721 7.03034C33.3503 6.85727 33.5619 6.72228 33.7939 6.6336C34.0259 6.54491 34.2736 6.50438 34.5218 6.51447C35.2811 6.51447 35.7979 6.83243 36.5098 6.83243C37.2217 6.83243 37.7859 6.58708 38.8912 5.82586L38.915 5.84959C36.02 8.8698 35.9204 9.40891 35.9204 11.7424V12.1596C35.4767 12.1424 35.0342 12.1014 34.5949 12.0366C33.7375 12.9828 32.9421 13.9832 32.2135 15.0317L32.287 15.1052C33.0665 14.983 33.8548 14.9256 34.6438 14.9335H35.9199V18.9113C35.9199 21.3654 35.5763 22.3734 33.5143 25.0248L33.6125 25.1478C34.6237 24.6914 35.7184 24.449 36.8278 24.4359C37.1992 24.4175 37.5707 24.4731 37.9204 24.5996C38.2702 24.726 38.5913 24.9207 38.8651 25.1724H38.9387C39.8767 24.3548 40.9164 23.6617 42.032 23.1104M154.972 15.2543C154.976 14.2265 155.187 13.21 155.592 12.2654C155.997 11.3207 156.587 10.4671 157.329 9.75535L157.231 9.63244C155.821 10.093 154.541 10.8841 153.5 11.9398C152.19 13.2673 151.458 15.0582 151.462 16.9229C151.44 17.991 151.638 19.0522 152.043 20.0406C152.448 21.029 153.053 21.9234 153.819 22.6681C155.488 24.3377 157.796 25.2954 160.668 25.2954C161.831 25.3356 162.99 25.1385 164.074 24.7162C165.159 24.2939 166.146 23.6552 166.976 22.8389C168.283 21.4957 169.03 19.7049 169.064 17.8307L168.892 17.807C167.998 19.4839 166.523 20.7767 164.743 21.4427V7.86938C165.234 7.89311 165.502 7.89312 165.652 7.89312C167.518 7.89312 168.942 6.71474 169.678 3.10559L169.506 3.03203C168.794 3.98972 167.861 4.30864 166.536 4.30864C164.376 4.30864 160.841 3.45014 158.215 3.45014C156.153 3.45014 154.41 4.08655 153.255 5.24261C152.846 5.63506 152.523 6.10858 152.308 6.63289C152.092 7.1572 151.988 7.72075 152.003 8.28749C152.009 8.97133 152.151 9.64713 152.42 10.276H152.518C152.679 9.53534 153.045 8.85477 153.574 8.31169C154.408 7.47691 155.611 6.9862 157.305 6.9862C159.075 7.03977 160.838 7.22026 162.582 7.52627C161.257 8.01745 159.563 8.70511 158.457 9.21955C158.633 10.1174 158.716 11.0311 158.703 11.946V19.3855C158.703 20.392 158.679 20.8092 158.385 21.1779C157.862 20.9372 157.381 20.6138 156.961 20.2202C156.307 19.5723 155.793 18.7973 155.45 17.943C155.108 17.0888 154.943 16.1734 154.968 15.2533" fill="#979797"/>
</svg>
