<svg width="112" height="28" viewBox="0 0 112 28" fill="none" xmlns="http://www.w3.org/2000/svg">
<path d="M110.049 25.8171C110.117 25.8178 110.185 25.8045 110.248 25.7779C110.311 25.7514 110.368 25.7123 110.416 25.6629C110.463 25.6135 110.5 25.555 110.523 25.491C110.547 25.427 110.557 25.3588 110.553 25.2907C110.553 24.9174 110.327 24.739 109.863 24.739H109.113V26.6937H109.395V25.8416H109.741L109.749 25.852L110.287 26.6937H110.589L110.01 25.8225L110.049 25.8171ZM109.723 25.6213H109.396V24.9605H109.81C110.024 24.9605 110.268 24.9954 110.268 25.2745C110.268 25.5956 110.021 25.6213 109.721 25.6213M0.176941 4.44399H4.33988V19.544H12.0467V23.3696H0.176941V4.44399ZM13.8872 10.5375H17.8864V23.3626H13.8872V10.5375ZM15.8868 4.16149C16.3456 4.16157 16.7941 4.29714 17.1756 4.55103C17.5571 4.80493 17.8543 5.16577 18.0299 5.58791C18.2054 6.01006 18.2513 6.47455 18.1617 6.92266C18.0722 7.37078 17.8512 7.78238 17.5267 8.10543C17.2022 8.42847 16.7889 8.64846 16.3388 8.73757C15.8888 8.82667 15.4224 8.7809 14.9985 8.60603C14.5746 8.43117 14.2123 8.13506 13.9574 7.75515C13.7025 7.37525 13.5664 6.92861 13.5664 6.47171C13.5664 6.16829 13.6264 5.86785 13.7431 5.58753C13.8597 5.30722 14.0306 5.05252 14.2461 4.83799C14.4615 4.62346 14.7173 4.4533 14.9989 4.33723C15.2804 4.22115 15.5821 4.16144 15.8868 4.16149ZM34.6157 4.44109H38.6149V15.7516L43.1473 10.5317H48.0506L42.8016 16.4692L47.9402 23.368H42.9136L38.6682 17.0284H38.6157V23.3671H34.6165L34.6157 4.44109ZM20.1039 10.5388H23.9444V12.2914H23.999C24.3826 11.637 24.9375 11.0986 25.6044 10.7337C26.2714 10.3688 27.0253 10.1912 27.7857 10.2197C31.8412 10.2197 32.5877 12.8768 32.5877 16.3286V23.3617H28.5885V17.1263C28.5885 15.6379 28.561 13.7247 26.5056 13.7247C24.4268 13.7247 24.106 15.3455 24.106 17.0181V23.3601H20.1068L20.1039 10.5388Z" fill="#979797"/>
<path d="M56.4727 15.4583C56.4803 15.1352 56.422 14.8139 56.3013 14.5139C56.1806 14.2139 56 13.9414 55.7704 13.713C55.5409 13.4846 55.2671 13.3049 54.9658 13.1849C54.6644 13.0649 54.3418 13.0071 54.0173 13.0149C53.3185 12.9716 52.6307 13.2035 52.102 13.6606C51.5734 14.1176 51.2462 14.7633 51.1912 15.4583H56.4727ZM59.8603 21.1415C59.1958 21.944 58.3603 22.5893 57.4144 23.0306C56.4685 23.4719 55.4359 23.6983 54.3914 23.6932C50.3922 23.6932 47.1903 21.0349 47.1903 16.9185C47.1903 12.8021 50.3918 10.1451 54.3914 10.1451C58.1294 10.1451 60.4736 12.8 60.4736 16.9185V18.1672H51.1912C51.3068 18.8753 51.6754 19.518 52.2293 19.9769C52.7832 20.4357 53.4849 20.6798 54.2052 20.6641C54.7744 20.6605 55.3337 20.5153 55.8322 20.2416C56.3307 19.9679 56.7525 19.5743 57.0592 19.0968L59.8603 21.1415ZM68.8094 13.6376C66.8098 13.6376 65.6101 14.9671 65.6101 16.9044C65.6101 18.8417 66.8094 20.1725 68.8094 20.1725C70.8095 20.1725 72.0117 18.845 72.0117 16.9044C72.0117 14.9638 70.8115 13.6376 68.8094 13.6376ZM75.6935 23.3601H72.0117V21.6592H71.9572C71.4953 22.2779 70.8962 22.782 70.2065 23.1323C69.5169 23.4825 68.7554 23.6695 67.9813 23.6787C64.1387 23.6787 61.6075 20.9171 61.6075 17.0118C61.6075 13.4252 63.8475 10.1318 67.5297 10.1318C69.1848 10.1318 70.7307 10.5827 71.6376 11.8326H71.6901V4.43985H75.6931L75.6935 23.3601ZM102.692 23.3675H98.6928V17.1309C98.6928 15.6437 98.6661 13.7293 96.6128 13.7293C94.5298 13.7293 94.2112 15.3496 94.2112 17.0226V23.3671H90.2119V10.5421H94.0512V12.2948H94.1049C94.4892 11.6406 95.0444 11.1024 95.7114 10.7376C96.3785 10.3728 97.1324 10.195 97.8929 10.2231C101.946 10.2231 102.694 12.878 102.694 16.3319L102.692 23.3675ZM85.6995 8.78898C85.2405 8.78906 84.7917 8.6536 84.41 8.39973C84.0284 8.14586 83.7308 7.78497 83.5551 7.36272C83.3794 6.94046 83.3333 6.47579 83.4228 6.02748C83.5123 5.57916 83.7332 5.16733 84.0577 4.84407C84.3822 4.5208 84.7957 4.30062 85.2459 4.21137C85.6961 4.12212 86.1627 4.1678 86.5868 4.34264C87.0109 4.51749 87.3734 4.81363 87.6285 5.19364C87.8836 5.57364 88.0198 6.02044 88.0199 6.47752C88.0199 6.78101 87.9599 7.08154 87.8434 7.36195C87.7268 7.64236 87.5559 7.89716 87.3404 8.1118C87.1249 8.32644 86.8691 8.49671 86.5876 8.6129C86.306 8.72909 86.0043 8.78893 85.6995 8.78898ZM87.6991 23.3675H83.6957V10.5421H87.6991V23.3675ZM104.686 0.468627H81.6861C81.1641 0.462761 80.6611 0.663515 80.2876 1.02677C79.9141 1.39003 79.7008 1.88608 79.6944 2.40591V25.404C79.7006 25.9241 79.9138 26.4204 80.2872 26.7841C80.6607 27.1477 81.1638 27.3489 81.6861 27.3433H104.686C105.209 27.3499 105.714 27.1493 106.089 26.7857C106.464 26.422 106.678 25.9251 106.685 25.404V2.40425C106.678 1.88339 106.463 1.38678 106.088 1.02353C105.713 0.660279 105.209 0.460098 104.686 0.466968M109.757 23.8682C109.27 23.8729 108.805 24.0693 108.464 24.4143C108.122 24.7594 107.932 25.2252 107.934 25.7097C107.936 26.1943 108.131 26.6582 108.476 27C108.821 27.3418 109.288 27.5336 109.775 27.5336C110.261 27.5336 110.728 27.3418 111.073 27C111.418 26.6582 111.613 26.1943 111.615 25.7097C111.617 25.2252 111.427 24.7594 111.085 24.4143C110.744 24.0693 110.279 23.8729 109.792 23.8682H109.757ZM109.757 27.3238C109.438 27.3291 109.124 27.24 108.856 27.0679C108.588 26.8957 108.377 26.6482 108.25 26.3566C108.122 26.065 108.085 25.7425 108.142 25.4297C108.199 25.117 108.348 24.8281 108.57 24.5997C108.792 24.3712 109.077 24.2134 109.389 24.1462C109.701 24.079 110.026 24.1055 110.323 24.2222C110.62 24.3389 110.875 24.5407 111.057 24.802C111.239 25.0633 111.338 25.3724 111.344 25.6902V25.7172C111.353 26.1341 111.195 26.5374 110.905 26.8386C110.616 27.1397 110.218 27.314 109.799 27.323L109.757 27.3238Z" fill="#979797"/>
</svg>
