<svg width="165" height="28" viewBox="0 0 165 28" fill="none" xmlns="http://www.w3.org/2000/svg">
<path d="M29.3904 14C29.3904 5.29533 23.2188 0 14.6963 0C6.21046 0 0.0389404 5.29533 0.0389404 14C0.0389404 22.7047 6.21046 28 14.733 28C23.2188 28 29.3904 22.7047 29.3904 14ZM17.3045 17.4456C17.3045 19.6943 16.5698 21.399 14.733 21.399C12.8595 21.399 12.1615 19.6943 12.1615 17.4456V10.5907C12.1615 8.3057 12.8228 6.60104 14.6963 6.60104C16.533 6.6373 17.2677 8.34197 17.3045 10.5907V17.4456Z" fill="#979797"/>
<path d="M55.2666 27.3471V7.61658H45.4583V18.3523C44.7971 20.8187 43.7317 21.544 42.7766 21.544C41.6746 21.544 41.6011 20.0207 41.6011 18.2798V7.61658H31.756V21.2539C31.756 24.9896 34.3275 27.7824 37.7806 27.7824C41.4174 27.7824 44.1358 25.4974 45.4583 23.1399V27.3471H55.2666Z" fill="#979797"/>
<path d="M74.5469 25.8238V20.6736C73.2244 21.6891 69.808 21.6166 69.808 18.8601V13.2383H74.5469V7.61658H69.808V2.10363H62.4242L60.3671 7.61658H56.9139V13.2383H59.9997V20.9275C59.9997 25.3161 63.3426 27.7824 67.5672 27.7824C69.5509 27.7824 73.3713 27.0933 74.5469 25.8238Z" fill="#979797"/>
<path d="M86.1962 27.3471V0.689119H76.3879V27.3471H86.1962Z" fill="#979797"/>
<path d="M112.34 17.6269C112.303 11.2798 107.234 7.21762 100.254 7.21762C93.2744 7.21762 88.2049 11.2798 88.2049 17.6269C88.2049 24.0104 93.2744 27.7824 100.254 27.7461C107.271 27.7461 112.34 23.9741 112.34 17.6269ZM101.944 20.2746C101.944 21.544 101.466 22.5233 100.254 22.5233C99.0418 22.5233 98.5642 21.544 98.5642 20.2746V14.7979C98.5642 13.4922 99.0418 12.513 100.254 12.513C101.466 12.5492 101.944 13.5285 101.944 14.7979V20.2746Z" fill="#979797"/>
<path d="M137.524 17.6269C137.487 11.2798 132.418 7.21762 125.438 7.21762C118.458 7.21762 113.389 11.2798 113.389 17.6269C113.389 24.0104 118.458 27.7824 125.438 27.7461C132.454 27.7461 137.524 23.9741 137.524 17.6269ZM127.128 20.2746C127.128 21.544 126.65 22.5233 125.438 22.5233C124.226 22.5233 123.748 21.544 123.748 20.2746V14.7979C123.748 13.4922 124.226 12.513 125.438 12.513C126.65 12.5492 127.128 13.5285 127.128 14.7979V20.2746Z" fill="#979797"/>
<path d="M164.177 27.3471L156.389 16.5751L163.663 7.61658H153.34L148.785 14.3264V0.689119H139.491V27.3471H148.785V19.9845L153.744 27.3471H164.177Z" fill="#979797"/>
</svg>
