<svg width="226" height="20" viewBox="0 0 226 20" fill="none" xmlns="http://www.w3.org/2000/svg">
<path d="M14.4869 2.056L8.84694 12.832V19H6.08694V12.832L0.42294 2.056H3.59094L7.47894 9.904L11.3669 2.056H14.4869ZM19.2669 16.864H25.1229V19H16.5309V2.056H19.2669V16.864ZM32.5693 5.608C33.7693 5.608 34.7933 5.904 35.6413 6.496C36.4893 7.088 37.0893 7.872 37.4413 8.848V5.776H40.1773V19H37.4413V15.928C37.0893 16.904 36.4893 17.688 35.6413 18.28C34.7933 18.872 33.7693 19.168 32.5693 19.168C31.4173 19.168 30.3853 18.896 29.4733 18.352C28.5773 17.808 27.8733 17.024 27.3613 16C26.8493 14.976 26.5933 13.768 26.5933 12.376C26.5933 11 26.8493 9.8 27.3613 8.776C27.8733 7.752 28.5773 6.968 29.4733 6.424C30.3853 5.88 31.4173 5.608 32.5693 5.608ZM33.4093 8.008C32.1933 8.008 31.2173 8.4 30.4813 9.184C29.7613 9.952 29.4013 11.016 29.4013 12.376C29.4013 13.736 29.7613 14.808 30.4813 15.592C31.2173 16.36 32.1933 16.744 33.4093 16.744C34.1773 16.744 34.8653 16.568 35.4733 16.216C36.0813 15.848 36.5613 15.336 36.9133 14.68C37.2653 14.024 37.4413 13.256 37.4413 12.376C37.4413 11.512 37.2653 10.752 36.9133 10.096C36.5613 9.424 36.0813 8.912 35.4733 8.56C34.8653 8.192 34.1773 8.008 33.4093 8.008ZM50.8526 5.56C52.3886 5.56 53.6206 6.056 54.5486 7.048C55.4766 8.04 55.9406 9.456 55.9406 11.296V19H53.2046V11.584C53.2046 10.4 52.9006 9.488 52.2926 8.848C51.6846 8.192 50.8526 7.864 49.7966 7.864C48.7086 7.864 47.8366 8.216 47.1806 8.92C46.5246 9.608 46.1966 10.624 46.1966 11.968V19H43.4606V5.776H46.1966V8.68C46.5486 7.688 47.1406 6.92 47.9726 6.376C48.8046 5.832 49.7646 5.56 50.8526 5.56ZM71.4283 11.752C71.4283 12.2 71.3963 12.592 71.3323 12.928H61.1563C61.2043 14.288 61.5803 15.296 62.2843 15.952C62.9883 16.608 63.8603 16.936 64.9003 16.936C65.8123 16.936 66.5803 16.704 67.2043 16.24C67.8443 15.776 68.2363 15.16 68.3803 14.392H71.3083C71.1323 15.32 70.7643 16.144 70.2043 16.864C69.6443 17.584 68.9163 18.152 68.0203 18.568C67.1243 18.968 66.1243 19.168 65.0203 19.168C63.7403 19.168 62.6043 18.896 61.6123 18.352C60.6363 17.808 59.8683 17.024 59.3083 16C58.7483 14.976 58.4683 13.768 58.4683 12.376C58.4683 11 58.7483 9.8 59.3083 8.776C59.8683 7.752 60.6363 6.968 61.6123 6.424C62.6043 5.88 63.7403 5.608 65.0203 5.608C66.3163 5.608 67.4443 5.88 68.4043 6.424C69.3803 6.952 70.1243 7.688 70.6363 8.632C71.1643 9.56 71.4283 10.6 71.4283 11.752ZM68.6683 11.68C68.7003 10.816 68.5483 10.096 68.2123 9.52C67.8923 8.928 67.4443 8.496 66.8683 8.224C66.3083 7.936 65.6923 7.792 65.0203 7.792C63.9483 7.792 63.0523 8.12 62.3323 8.776C61.6123 9.432 61.2203 10.4 61.1563 11.68H68.6683ZM78.4139 5.608C79.9659 5.608 81.2059 6.008 82.1339 6.808C83.0779 7.592 83.6539 8.648 83.8619 9.976H81.2699C81.1579 9.256 80.8459 8.68 80.3339 8.248C79.8379 7.8 79.1739 7.576 78.3419 7.576C77.6539 7.576 77.1179 7.744 76.7339 8.08C76.3659 8.4 76.1819 8.84 76.1819 9.4C76.1819 9.816 76.3179 10.152 76.5899 10.408C76.8619 10.664 77.1979 10.864 77.5979 11.008C78.0139 11.152 78.5979 11.312 79.3499 11.488C80.3419 11.712 81.1419 11.944 81.7499 12.184C82.3739 12.424 82.9019 12.808 83.3339 13.336C83.7819 13.848 84.0059 14.552 84.0059 15.448C84.0059 16.552 83.5819 17.448 82.7339 18.136C81.9019 18.824 80.7739 19.168 79.3499 19.168C77.7019 19.168 76.3659 18.784 75.3419 18.016C74.3339 17.248 73.7259 16.176 73.5179 14.8H76.1819C76.2619 15.52 76.5819 16.104 77.1419 16.552C77.7019 17 78.4379 17.224 79.3499 17.224C80.0059 17.224 80.5179 17.056 80.8859 16.72C81.2699 16.368 81.4619 15.928 81.4619 15.4C81.4619 14.936 81.3179 14.568 81.0299 14.296C80.7419 14.024 80.3819 13.816 79.9499 13.672C79.5179 13.512 78.9259 13.352 78.1739 13.192C77.2139 12.968 76.4299 12.744 75.8219 12.52C75.2299 12.296 74.7179 11.936 74.2859 11.44C73.8699 10.928 73.6619 10.24 73.6619 9.376C73.6619 8.256 74.0779 7.352 74.9099 6.664C75.7579 5.96 76.9259 5.608 78.4139 5.608ZM102.383 2.056V4.264H95.1106V9.52H101.111V11.632H95.1106V19H92.3746V2.056H102.383ZM117.108 11.752C117.108 12.2 117.076 12.592 117.012 12.928H106.836C106.884 14.288 107.26 15.296 107.964 15.952C108.668 16.608 109.54 16.936 110.58 16.936C111.492 16.936 112.26 16.704 112.884 16.24C113.524 15.776 113.916 15.16 114.06 14.392H116.988C116.812 15.32 116.444 16.144 115.884 16.864C115.324 17.584 114.596 18.152 113.7 18.568C112.804 18.968 111.804 19.168 110.7 19.168C109.42 19.168 108.284 18.896 107.292 18.352C106.316 17.808 105.548 17.024 104.988 16C104.428 14.976 104.148 13.768 104.148 12.376C104.148 11 104.428 9.8 104.988 8.776C105.548 7.752 106.316 6.968 107.292 6.424C108.284 5.88 109.42 5.608 110.7 5.608C111.996 5.608 113.124 5.88 114.084 6.424C115.06 6.952 115.804 7.688 116.316 8.632C116.844 9.56 117.108 10.6 117.108 11.752ZM114.348 11.68C114.38 10.816 114.228 10.096 113.892 9.52C113.572 8.928 113.124 8.496 112.548 8.224C111.988 7.936 111.372 7.792 110.7 7.792C109.628 7.792 108.732 8.12 108.012 8.776C107.292 9.432 106.9 10.4 106.836 11.68H114.348ZM125.054 5.608C126.254 5.608 127.278 5.904 128.126 6.496C128.974 7.088 129.574 7.872 129.926 8.848V5.776H132.662V19H129.926V15.928C129.574 16.904 128.974 17.688 128.126 18.28C127.278 18.872 126.254 19.168 125.054 19.168C123.902 19.168 122.87 18.896 121.958 18.352C121.062 17.808 120.358 17.024 119.846 16C119.334 14.976 119.078 13.768 119.078 12.376C119.078 11 119.334 9.8 119.846 8.776C120.358 7.752 121.062 6.968 121.958 6.424C122.87 5.88 123.902 5.608 125.054 5.608ZM125.894 8.008C124.678 8.008 123.702 8.4 122.966 9.184C122.246 9.952 121.886 11.016 121.886 12.376C121.886 13.736 122.246 14.808 122.966 15.592C123.702 16.36 124.678 16.744 125.894 16.744C126.662 16.744 127.35 16.568 127.958 16.216C128.566 15.848 129.046 15.336 129.398 14.68C129.75 14.024 129.926 13.256 129.926 12.376C129.926 11.512 129.75 10.752 129.398 10.096C129.046 9.424 128.566 8.912 127.958 8.56C127.35 8.192 126.662 8.008 125.894 8.008ZM142.593 16.624V19H140.913C139.505 19 138.433 18.664 137.697 17.992C136.977 17.304 136.617 16.168 136.617 14.584V8.104H134.721V5.776H136.617V2.488H139.377V5.776H142.569V8.104H139.377V14.632C139.377 15.384 139.513 15.904 139.785 16.192C140.073 16.48 140.569 16.624 141.273 16.624H142.593ZM157.348 5.776V19H154.588V16.12C154.252 17.096 153.668 17.856 152.836 18.4C152.004 18.928 151.036 19.192 149.932 19.192C148.396 19.192 147.164 18.696 146.236 17.704C145.308 16.712 144.844 15.296 144.844 13.456V5.776H147.58V13.168C147.58 14.368 147.884 15.296 148.492 15.952C149.1 16.592 149.932 16.912 150.988 16.912C152.076 16.912 152.948 16.56 153.604 15.856C154.26 15.152 154.588 14.128 154.588 12.784V5.776H157.348ZM163.361 8.368C163.809 7.504 164.449 6.824 165.281 6.328C166.113 5.816 167.073 5.56 168.161 5.56V8.536H167.345C166.145 8.536 165.177 8.832 164.441 9.424C163.721 10 163.361 10.96 163.361 12.304V19H160.625V5.776H163.361V8.368ZM182.499 11.752C182.499 12.2 182.467 12.592 182.403 12.928H172.227C172.275 14.288 172.651 15.296 173.355 15.952C174.059 16.608 174.931 16.936 175.971 16.936C176.883 16.936 177.651 16.704 178.275 16.24C178.915 15.776 179.307 15.16 179.451 14.392H182.379C182.203 15.32 181.835 16.144 181.275 16.864C180.715 17.584 179.987 18.152 179.091 18.568C178.195 18.968 177.195 19.168 176.091 19.168C174.811 19.168 173.675 18.896 172.683 18.352C171.707 17.808 170.939 17.024 170.379 16C169.819 14.976 169.539 13.768 169.539 12.376C169.539 11 169.819 9.8 170.379 8.776C170.939 7.752 171.707 6.968 172.683 6.424C173.675 5.88 174.811 5.608 176.091 5.608C177.387 5.608 178.515 5.88 179.475 6.424C180.451 6.952 181.195 7.688 181.707 8.632C182.235 9.56 182.499 10.6 182.499 11.752ZM179.739 11.68C179.771 10.816 179.619 10.096 179.283 9.52C178.963 8.928 178.515 8.496 177.939 8.224C177.379 7.936 176.763 7.792 176.091 7.792C175.019 7.792 174.123 8.12 173.403 8.776C172.683 9.432 172.291 10.4 172.227 11.68H179.739ZM190.444 5.608C191.644 5.608 192.668 5.904 193.516 6.496C194.364 7.088 194.956 7.872 195.292 8.848V1.24H198.052V19H195.292V15.928C194.956 16.904 194.364 17.688 193.516 18.28C192.668 18.872 191.644 19.168 190.444 19.168C189.292 19.168 188.26 18.896 187.348 18.352C186.452 17.808 185.748 17.024 185.236 16C184.724 14.976 184.468 13.768 184.468 12.376C184.468 11 184.724 9.8 185.236 8.776C185.748 7.752 186.452 6.968 187.348 6.424C188.26 5.88 189.292 5.608 190.444 5.608ZM191.284 8.008C190.068 8.008 189.092 8.4 188.356 9.184C187.636 9.952 187.276 11.016 187.276 12.376C187.276 13.736 187.636 14.808 188.356 15.592C189.092 16.36 190.068 16.744 191.284 16.744C192.052 16.744 192.74 16.568 193.348 16.216C193.956 15.848 194.436 15.336 194.788 14.68C195.14 14.024 195.316 13.256 195.316 12.376C195.316 11.512 195.14 10.752 194.788 10.096C194.436 9.424 193.956 8.912 193.348 8.56C192.74 8.192 192.052 8.008 191.284 8.008ZM206.577 1.936C206.577 1.472 206.737 1.088 207.057 0.783998C207.377 0.479999 207.801 0.327999 208.329 0.327999C208.857 0.327999 209.281 0.479999 209.601 0.783998C209.937 1.088 210.105 1.472 210.105 1.936C210.105 2.4 209.937 2.776 209.601 3.064C209.281 3.352 208.857 3.496 208.329 3.496C207.801 3.496 207.377 3.352 207.057 3.064C206.737 2.776 206.577 2.4 206.577 1.936ZM209.697 5.776V19H206.961V5.776H209.697ZM220.399 5.56C221.935 5.56 223.167 6.056 224.095 7.048C225.023 8.04 225.487 9.456 225.487 11.296V19H222.751V11.584C222.751 10.4 222.447 9.488 221.839 8.848C221.231 8.192 220.399 7.864 219.343 7.864C218.255 7.864 217.383 8.216 216.727 8.92C216.071 9.608 215.743 10.624 215.743 11.968V19H213.007V5.776H215.743V8.68C216.095 7.688 216.687 6.92 217.519 6.376C218.351 5.832 219.311 5.56 220.399 5.56Z" fill="#707070"/>
</svg>
