<svg width="145" height="28" viewBox="0 0 145 28" fill="none" xmlns="http://www.w3.org/2000/svg">
<path d="M6.67105 27.6111V16.1778L0.798828 0.388889H6.00994L9.3155 10.3056L12.621 0.388889H17.4044L11.5322 16.1778V27.6111H6.67105ZM24.4685 28C19.724 28 17.1185 25.2778 17.1185 20.65V7.35C17.1185 2.68333 19.724 0 24.4685 0C29.2518 0 31.8574 2.68333 31.8574 7.35V20.65C31.8574 25.2778 29.2518 28 24.4685 28ZM24.4685 23.6833C26.0629 23.6833 26.9962 22.75 26.9962 20.8833V7.11667C26.9962 5.21111 26.0629 4.31667 24.4685 4.31667C22.874 4.31667 21.9796 5.21111 21.9796 7.11667V20.8833C21.9796 22.75 22.874 23.6833 24.4685 23.6833ZM40.9556 28C36.1722 28 33.7222 25.2778 33.7222 20.65V0.388889H38.5834V20.9611C38.5834 22.8667 39.4389 23.6833 41.0334 23.6833C42.6278 23.6833 43.5223 22.8667 43.5223 20.9611V0.388889H48.1889V20.65C48.1889 25.2778 45.7 28 40.9556 28ZM50.4396 27.6111V0.388889H57.6341C62.5729 0.388889 64.8285 2.52778 64.8285 6.96111V8.32222C64.8285 11.1611 63.8174 12.95 61.6785 13.8056V13.9222C63.9729 14.5833 64.8674 16.6056 64.8674 20.0667V24.0722C64.8674 25.4722 64.9452 26.5222 65.4118 27.6111H60.4729C60.2007 26.8722 60.0452 26.4833 60.0452 24.0333V19.7556C60.0452 17.1889 59.2285 16.3333 56.9729 16.3333H55.3007V27.6111H50.4396ZM55.3007 12.0167H57.0896C58.9952 12.0167 59.9674 11.2 59.9674 9.06111V7.46667C59.9674 5.56111 59.2285 4.70556 57.5563 4.70556H55.3007V12.0167ZM73.3783 28C68.6339 28 66.2228 25.2389 66.2228 20.8444V19.4444H70.8116V21C70.8116 22.7889 71.6672 23.7611 73.3394 23.7611C74.8561 23.7611 75.8672 22.8667 75.8672 20.9611C75.8672 18.6667 74.9339 17.6944 71.7061 15.5556C67.5839 12.8333 66.3005 10.5389 66.3005 7.07778C66.3005 2.72222 68.7894 0 73.495 0C78.2005 0 80.5339 2.72222 80.5339 7.15556V8.12778H75.945V7.03889C75.945 5.21111 75.1668 4.23889 73.5339 4.23889C72.0172 4.23889 71.1227 5.13333 71.1227 6.92222C71.1227 8.94444 72.1339 9.95555 75.3616 12.0556C79.5616 14.7778 80.7283 17.1111 80.7283 20.7278C80.7283 25.2389 78.1616 28 73.3783 28ZM86.1224 27.6111V4.70556H81.0668V0.388889H96.0779V4.70556H90.9835V27.6111H86.1224ZM104.124 28C99.38 28 96.7744 25.2778 96.7744 20.65V7.35C96.7744 2.68333 99.38 0 104.124 0C108.908 0 111.513 2.68333 111.513 7.35V20.65C111.513 25.2778 108.908 28 104.124 28ZM104.124 23.6833C105.719 23.6833 106.652 22.75 106.652 20.8833V7.11667C106.652 5.21111 105.719 4.31667 104.124 4.31667C102.53 4.31667 101.636 5.21111 101.636 7.11667V20.8833C101.636 22.75 102.53 23.6833 104.124 23.6833ZM113.534 27.6111V0.388889H120.728C125.667 0.388889 127.923 2.52778 127.923 6.96111V8.32222C127.923 11.1611 126.911 12.95 124.773 13.8056V13.9222C127.067 14.5833 127.962 16.6056 127.962 20.0667V24.0722C127.962 25.4722 128.039 26.5222 128.506 27.6111H123.567C123.295 26.8722 123.139 26.4833 123.139 24.0333V19.7556C123.139 17.1889 122.323 16.3333 120.067 16.3333H118.395V27.6111H113.534ZM118.395 12.0167H120.184C122.089 12.0167 123.062 11.2 123.062 9.06111V7.46667C123.062 5.56111 122.323 4.70556 120.65 4.70556H118.395V12.0167ZM133.961 27.6111V16.1778L128.089 0.388889H133.3L136.605 10.3056L139.911 0.388889H144.694L138.822 16.1778V27.6111H133.961Z" fill="#979797"/>
</svg>
